<?xml version="1.0" encoding="UTF-8"?>
<!DOCTYPE svg PUBLIC "-//W3C//DTD SVG 1.1//EN" "http://www.w3.org/Graphics/SVG/1.1/DTD/svg11.dtd">
<!-- Creator: CorelDRAW -->
<svg xmlns="http://www.w3.org/2000/svg" xml:space="preserve" width="2048px" height="2048px" style="shape-rendering:geometricPrecision; text-rendering:geometricPrecision; image-rendering:optimizeQuality; fill-rule:evenodd; clip-rule:evenodd"
viewBox="0 0 2048 2048"
 xmlns:xlink="http://www.w3.org/1999/xlink">
 <defs>
  <style type="text/css">
   <![CDATA[
    .fil0 {fill:none}
    .fil1 {fill:#03A9F4}
    .fil2 {fill:#FFFFFE}
    .fil3 {fill:#FFFFFE;fill-rule:nonzero}
   ]]>
  </style>
 </defs>
 <g id="Layer_x0020_1">
  <metadata id="CorelCorpID_0Corel-Layer"/>
  <rect class="fil0" y="-0.881103" width="2048" height="2048"/>
  <rect class="fil1" width="2048" height="2048" rx="256.001" ry="256.001"/>
  <polygon class="fil2" points="1652.59,1341 1729.3,1440.02 1676.24,1476.66 1601.01,1378.61 1525.03,1476.87 1472.85,1440.02 1550.06,1340.32 1422.59,1308.82 1440.69,1246.92 1569.02,1279.74 1569.02,1151.52 1633.16,1151.52 1633.16,1279.77 1761.4,1247.33 1778.42,1309.56 "/>
  <polygon class="fil2" points="498.524,1340.9 575.234,1439.92 522.178,1476.57 446.942,1378.51 370.962,1476.77 318.788,1439.92 396.001,1340.23 268.524,1308.73 286.623,1246.83 414.955,1279.64 414.955,1151.42 479.097,1151.42 479.097,1279.67 607.335,1247.23 624.358,1309.46 "/>
  <polygon class="fil2" points="1108.25,1340.77 1184.95,1439.78 1131.9,1476.43 1056.66,1378.37 980.683,1476.63 928.51,1439.78 1005.72,1340.09 878.246,1308.59 896.345,1246.69 1024.68,1279.5 1024.68,1151.28 1088.82,1151.28 1088.82,1279.53 1217.06,1247.09 1234.08,1309.32 "/>
  <polygon class="fil2" points="755.034,1661.37 831.745,1760.38 778.688,1797.03 703.453,1698.98 627.473,1797.24 575.299,1760.38 652.511,1660.69 525.035,1629.19 543.134,1567.29 671.465,1600.11 671.465,1471.88 735.606,1471.88 735.606,1600.14 863.846,1567.7 880.869,1629.92 "/>
  <polygon class="fil2" points="1396.02,1661.37 1472.73,1760.38 1419.67,1797.03 1344.44,1698.98 1268.45,1797.24 1216.28,1760.38 1293.49,1660.69 1166.02,1629.19 1184.12,1567.29 1312.45,1600.11 1312.45,1471.88 1376.59,1471.88 1376.59,1600.14 1504.83,1567.7 1521.85,1629.92 "/>
  <g id="_351029456">
   <path id="_351031280" class="fil3" d="M1076.92 319.125c70.9229,0 136.312,23.4709 188.504,62.9174 2.10945,1.59449 4.19528,3.21614 6.26103,4.8626 -20.5784,7.46575 -40.4752,16.963 -59.4142,28.428 -34.702,21.0059 -65.3457,48.1831 -90.2327,80.08 -3.93544,-1.41378 -7.90512,-2.73189 -11.9055,-3.95079 -24.4855,-7.45985 -49.937,-11.2311 -75.5327,-11.2311 -62.9658,0 -123.482,22.7268 -170.684,64.4292 -31.8012,28.0973 -56.0504,63.6178 -70.343,103.335 -61.0961,4.07126 -118.787,29.5748 -162.872,72.6993 -48.2103,47.1591 -75.5162,110.978 -75.5162,178.575 0,58.2213 20.2725,113.66 56.7603,158.101l-136.534 0c-23.713,0 -19.1469,-0.917717 -41.8111,-6.18662 -42.9059,-9.98032 -81.143,-31.7859 -110.903,-61.7044 -40.4528,-40.6654 -65.3658,-96.1926 -65.3658,-157.406 0,-62.3339 25.8071,-118.743 67.5225,-159.552 41.5229,-40.6158 98.7213,-65.7402 161.751,-65.7402 2.18977,0 4.39961,0.034252 6.62835,0.101575 11.1413,-44.576 35.7662,-83.9127 69.3886,-113.617 40.6666,-35.9303 94.3997,-57.8067 153.194,-57.8067 23.5418,0 46.3347,3.5315 67.8449,10.0854 11.4437,3.48544 22.5272,7.84843 33.1666,13.0063 25.0559,-38.1638 58.6075,-70.4682 98.0363,-94.3347 47.2229,-28.5874 102.752,-45.091 162.057,-45.091z"/>
   <path id="_351031184" class="fil3" d="M1386.99 398.705c69.2103,0 133.022,22.904 183.953,61.3985 49.2343,37.213 86.4402,89.0375 104.907,148.906 33.9355,25.213 62.0445,57.6449 81.9603,94.989 20.9929,39.3591 32.8618,84.0485 32.8618,131.371 0,78.4737 -32.4933,149.497 -85.0264,200.887 -44.9327,43.9536 -103.055,79.1327 -169.641,82.8697l-736.001 0c-23.1402,0 -18.6851,-0.895276 -40.8012,-6.0378 -41.8701,-9.73938 -79.1847,-31.0181 -108.226,-60.2138 -39.476,-39.6839 -63.7878,-93.8705 -63.7878,-153.606 0,-60.828 25.1835,-115.876 65.8926,-155.699 40.5201,-39.6355 96.3379,-64.1528 157.845,-64.1528 2.13662,0 4.29331,0.0330709 6.4689,0.0992127 10.8721,-43.5 34.9028,-81.8871 67.7127,-110.875 39.6851,-35.0622 92.1213,-56.4107 149.496,-56.4107 22.9736,0 45.2162,3.44646 66.2067,9.84213 11.1673,3.40158 21.9827,7.65827 32.3658,12.6921 24.4512,-37.2425 57.1926,-68.7674 95.6694,-92.0576 46.0831,-27.8965 100.271,-44.002 158.144,-44.002z"/>
  </g>
 </g>
</svg>
