<?xml version="1.0" encoding="UTF-8"?>
<!DOCTYPE svg PUBLIC "-//W3C//DTD SVG 1.1//EN" "http://www.w3.org/Graphics/SVG/1.1/DTD/svg11.dtd">
<!-- Creator: CorelDRAW -->
<svg xmlns="http://www.w3.org/2000/svg" xml:space="preserve" width="2048px" height="2048px" style="shape-rendering:geometricPrecision; text-rendering:geometricPrecision; image-rendering:optimizeQuality; fill-rule:evenodd; clip-rule:evenodd"
viewBox="0 0 2048 2048"
 xmlns:xlink="http://www.w3.org/1999/xlink">
 <defs>
  <style type="text/css">
   <![CDATA[
    .fil0 {fill:#795548}
    .fil1 {fill:#FFFFFE}
   ]]>
  </style>
 </defs>
 <g id="Layer_x0020_1">
  <metadata id="CorelCorpID_0Corel-Layer"/>
  <rect class="fil0" width="2048" height="2048" rx="256.001" ry="256.001"/>
  <path class="fil1" d="M1211.44 510.937c36.6827,0 71.6363,9.95788 101.613,27.9095 24.8232,14.8665 46.2012,35.2075 62.2867,59.8997 3.0189,-0.559843 6.04725,-1.05473 9.0815,-1.47992 9.14174,-1.27913 18.1228,-1.95591 26.8642,-1.95591 35.217,0 69.1371,9.37914 98.5796,26.3268 24.476,14.0882 45.8422,33.5221 62.25,57.241 8.94213,-1.20473 17.6587,-1.78937 26.1189,-1.78937 46.1174,0 88.6572,16.0075 122.065,42.6048 33.2292,26.4567 57.4182,63.5823 67.0394,105.973 3.05551,13.4634 4.6689,27.0732 4.6689,40.6252 0,52.1209 -21.8351,99.4288 -57.1252,133.746 -35.2051,34.2355 -83.7851,55.4304 -137.381,55.4304l-150.004 0 -0.239764 -1.57914c-4.7067,-56.8477 -17.5618,-112.434 -27.0508,-168.559l-0.18189 -1.07835 -0.142913 -0.852757 -0.322441 -1.93228 -0.0153543 -0.090945 -0.303544 -1.84134 -0.170079 -1.03465 -0.146457 -0.89882 -0.312992 -1.93347 -0.00708662 -0.0448819 -0.409843 -2.56299 -0.0507874 -0.316536 -0.148819 -0.944883 -0.303544 -1.93583c-4.4941,-28.8508 -23.537,-53.8477 -50.7402,-64.8367 -9.97678,-4.02992 -20.7307,-6.17481 -31.5012,-6.04134 -18.4441,0.229134 -36.2776,7.06182 -50.9386,18.0945 -86.9198,65.4107 -209.31,119.785 -227.199,238.379 -53.0918,-0.343701 -101.177,-21.4725 -136.07,-55.4351 -35.1815,-34.2461 -56.9634,-81.5422 -56.9634,-133.73 0,-48.4748 18.7311,-92.9646 49.852,-126.63 26.7662,-28.9547 62.7508,-49.8461 103.903,-58.317 4.54016,-44.7036 25.1044,-84.867 56.0162,-114.956 35.1839,-34.2473 83.7768,-55.4528 137.392,-55.4528zm143.524 323.759c16.8791,6.62126 28.3181,22.4445 31.1079,40.0914 9.31654,60.7477 19.598,121.742 29.3575,182.516l0.022441 0.290551 2.41299 15.9213 0.188977 1.62165c1.28386,12.6343 1.14567,25.3193 -0.552756,37.7953 -1.62756,11.9646 -4.80945,24.1902 -9.67914,36.4949l-0.0484252 0.120473c-8.27953,20.3209 -20.4071,38.0292 -35.2205,52.6347 -15.4063,15.1914 -33.587,26.9941 -53.2477,34.8709l-0.37441 0.138189c-19.6099,7.82717 -40.9465,11.9197 -62.8276,11.8287 -20.9362,-0.0862205 -42.3083,-4.06536 -63.0461,-12.3413l-0.120473 -0.0496063c-20.8795,-8.40709 -39.0957,-20.2984 -54.1819,-34.6359 -15.9071,-15.1158 -28.5036,-32.9599 -37.2544,-52.3453l-0.0732284 -0.168898c-8.75552,-19.4374 -13.6583,-40.5567 -14.1851,-62.1874 -0.507874,-20.8606 3.11575,-42.0296 11.3445,-62.4355 4.89095,-12.2114 11.0516,-23.2536 18.2717,-33.137 7.6819,-10.5142 16.4917,-19.8449 26.1945,-27.9874l1.16339 -0.793701 12.3142 -9.47127 0.218504 -0.193701 147.002 -110.624c9.19371,-6.90355 20.4851,-11.5181 32.0941,-11.6669 6.36969,-0.0767717 12.9248,1.13976 19.1185,3.71457zm-361.325 316.872c5.44725,-0.115748 11.0693,0.941339 16.3925,3.21733 5.41182,2.22284 10.05,5.47914 13.8201,9.42284 3.64016,3.80788 6.59882,8.4378 8.74371,13.4728 0.863386,2.02205 1.59331,3.97677 2.13425,5.91497 0.504331,1.80827 0.927166,3.88819 1.25433,6.37441l0.0413386 -0.00708662 16.7386 114.685 0.022441 0.288189 1.37953 10.0358 0.179528 1.61457c0.785434,8.7567 0.615355,17.6977 -0.604725,26.6563 -1.14803,8.44489 -3.32481,17.048 -6.61654,25.6713l-0.0472441 0.120473c-5.64685,14.3728 -13.8331,26.8937 -23.778,37.213 -10.4126,10.8047 -22.6606,19.2272 -35.8701,24.8788l-1.62756 0.715749 -0.0992127 0.0354331 -0.0106299 -0.0307087c-12.9425,5.2937 -26.7969,8.10946 -40.8366,8.15197 -13.9347,0.0437008 -28.2898,-2.69882 -42.3567,-8.51812l-0.115748 -0.0484252c-13.9949,-5.84292 -26.1981,-14.1815 -36.3012,-24.2788 -10.6287,-10.6205 -19.011,-23.1744 -24.7914,-36.8221 -5.81339,-13.7528 -9.01772,-28.6878 -9.26694,-43.9713 -0.238583,-14.6398 2.29016,-29.5453 7.89686,-43.963 3.32717,-8.6067 7.513,-16.4268 12.4169,-23.4567 5.24646,-7.52245 11.1697,-14.1343 17.6138,-19.8402l1.11732 -0.791339 7.4256 -6.03189 0.256299 -0.31063 88.7859 -70.5886 0.0389764 0.0531496c1.75276,-1.4315 3.5374,-2.64803 5.28426,-3.68032 2.60197,-1.53543 4.28268,-2.40591 5.35394,-2.86181l0.0259843 0.0637796c4.8567,-2.13189 10.1327,-3.2811 15.4004,-3.38504zm680.771 26.5158l0 0zm2.14252 5.90434c0.506693,1.80591 0.928347,3.88111 1.25787,6.36378l0.0413386 -0.00590552 16.7917 114.509 0.0236221 0.288189 1.38307 10.0205 0.180709 1.61221c0.787796,8.74371 0.616536,17.6705 -0.607087,26.6162 -1.15158,8.43072 -3.33425,17.0209 -6.6378,25.6311l-0.0472441 0.120473c-5.66457,14.3516 -13.8768,26.8524 -23.8536,37.1563 -10.4445,10.7882 -22.7315,19.1977 -35.9835,24.8398l-1.6311 0.714567 -0.100394 0.0366142 -0.0106299 -0.0307087c-12.9839,5.28544 -26.8807,8.09646 -40.9666,8.13898 -13.9772,0.0437008 -28.3772,-2.6941 -42.4902,-8.50512l-0.115748 -0.0484252c-14.0386,-5.83347 -26.2795,-14.1591 -36.4158,-24.241 -10.663,-10.6051 -19.0713,-23.139 -24.8693,-36.7654 -5.83229,-13.7327 -9.04725,-28.6453 -9.29646,-43.9052 -0.239764,-14.6173 2.29725,-29.4992 7.92166,-43.8957 3.3378,-8.59253 7.53662,-16.4008 12.4559,-23.4201 5.263,-7.51064 11.2051,-14.113 17.6705,-19.8106l1.12087 -0.788977 7.44804 -6.02363 0.257481 -0.31063 89.0658 -70.48 0.0401575 0.0543308c1.75748,-1.43032 3.54803,-2.64449 5.30079,-3.67559 2.60906,-1.53307 4.29567,-2.40236 5.37048,-2.85827l0.0259843 0.0649607c4.87205,-2.12953 10.1658,-3.27638 15.45,-3.38032 5.46378,-0.115748 11.1036,0.938977 16.4433,3.2126 5.42953,2.21929 10.0819,5.47087 13.8638,9.40867 3.65079,3.79961 6.62008,8.42481 8.77205,13.4516 0.865749,2.01969 1.59685,3.96851 2.14016,5.90552zm-305.894 157.606l0 0zm-74.6505 -18.163l0 0zm6.36378 -4.44567c2.27599,-1.31457 4.47402,-2.3563 6.463,-3.18189l0.0283465 0.0744095c5.73189,-2.48858 11.7933,-3.79843 17.6917,-3.8752 6.11103,-0.0767717 12.3992,1.13504 18.3414,3.69567 6.10749,2.48622 11.3327,6.11811 15.5847,10.4976l-0.0472441 0.120473c4.33819,4.47166 7.79528,9.72048 10.2284,15.2764 0.94252,2.14725 1.79528,4.40788 2.53465,6.95552 0.687402,2.3752 1.24134,4.88504 1.62992,7.63111l0.0496063 -0.00826772 28.0288 181.047 0.022441 0.28937 2.31496 15.8433 0.180709 1.61339c1.23189,12.574 1.09843,25.1953 -0.530315,37.6111 -1.56142,11.9055 -4.61457,24.0721 -9.28583,36.3166l-0.046063 0.120473c-7.94292,20.2205 -19.5791,37.8425 -33.7902,52.3772 -14.7803,15.1169 -32.2229,26.8618 -51.0839,34.7008l-0.360236 0.137008c-18.8126,7.78938 -39.2823,11.8606 -60.2752,11.7709 -20.0858,-0.0862205 -40.5898,-4.04528 -60.4843,-12.2811l-0.116929 -0.0484252c-20.0303,-8.36694 -37.5059,-20.2004 -51.9804,-34.467 -15.261,-15.0425 -27.3461,-32.7992 -35.7414,-52.0902l-0.0696851 -0.167717c-8.40001,-19.3417 -13.1032,-40.3583 -13.6087,-61.8827 -0.487796,-20.7603 2.98937,-41.8252 10.8839,-62.1308 4.69252,-12.1524 10.6016,-23.1402 17.5288,-32.9752 7.37008,-10.4622 15.8221,-19.748 25.1303,-27.8516l1.11614 -0.790158 11.8146 -9.42402 0.209055 -0.19252 141.275 -110.265c2.19213,-1.81063 4.33229,-3.27047 6.36378,-4.44567zm-537.955 22.6087l0 0zm-74.6505 -18.163l0 0zm6.36378 -4.44567c2.27599,-1.31457 4.47402,-2.3563 6.463,-3.18189l0.0283465 0.0744095c5.73189,-2.48858 11.7933,-3.79843 17.6917,-3.8752 6.11103,-0.0767717 12.3992,1.13504 18.3414,3.69567 6.10749,2.48622 11.3327,6.11811 15.5847,10.4976l-0.0472441 0.120473c4.33819,4.47166 7.79528,9.72048 10.2284,15.2764 0.94252,2.14725 1.79528,4.40788 2.53465,6.95552 0.687402,2.3752 1.24134,4.88504 1.62992,7.63111l0.0496063 -0.00826772 28.0288 181.047 0.022441 0.28937 2.31496 15.8433 0.180709 1.61339c1.23189,12.574 1.09843,25.1953 -0.530315,37.6111 -1.56142,11.9055 -4.61457,24.0721 -9.28583,36.3166l-0.046063 0.120473c-7.94292,20.2205 -19.5791,37.8425 -33.7902,52.3772 -14.7803,15.1169 -32.2229,26.8618 -51.0839,34.7008l-0.360236 0.137008c-18.8126,7.78938 -39.2823,11.8606 -60.2752,11.7709 -20.0858,-0.0862205 -40.5898,-4.04528 -60.4843,-12.2811l-0.116929 -0.0484252c-20.0303,-8.36694 -37.5059,-20.2004 -51.9804,-34.467 -15.261,-15.0425 -27.3461,-32.7992 -35.7414,-52.0902l-0.0696851 -0.167717c-8.40001,-19.3417 -13.1032,-40.3583 -13.6087,-61.8827 -0.487796,-20.7603 2.98937,-41.8252 10.8839,-62.1308 4.69252,-12.1524 10.6016,-23.1402 17.5288,-32.9752 7.37008,-10.4622 15.8221,-19.748 25.1303,-27.8516l1.11614 -0.790158 11.8146 -9.42402 0.209055 -0.19252 141.275 -110.265c2.19213,-1.81063 4.33229,-3.27047 6.36378,-4.44567zm9.50788 -326.977c5.44725,-0.114567 11.0693,0.936615 16.3925,3.20433 5.41182,2.21339 10.05,5.45788 13.8201,9.38623 3.64016,3.79134 6.59882,8.40355 8.74371,13.4185 0.863386,2.01378 1.59331,3.96024 2.13425,5.89016 0.504331,1.80236 0.927166,3.87402 1.25433,6.34961l0.0413386 -0.00708662 16.7386 114.228 0.022441 0.287008 1.37953 9.99568 0.179528 1.60866c0.785434,8.72127 0.615355,17.6268 -0.604725,26.55 -1.14803,8.41064 -3.32481,16.9795 -6.61654,25.5685l-0.0472441 0.120473c-5.64685,14.315 -13.8331,26.7862 -23.778,37.0642 -10.4126,10.7622 -22.6606,19.1504 -35.8701,24.7795l-1.62756 0.712205 -0.0992127 0.0366142 -0.0106299 -0.0307087c-12.9425,5.27244 -26.7969,8.07638 -40.8366,8.1189 -13.9347,0.0437008 -28.2898,-2.68819 -42.3567,-8.48386l-0.115748 -0.0484252c-13.9949,-5.8193 -26.1981,-14.1248 -36.3012,-24.1819 -10.6287,-10.578 -19.011,-23.0823 -24.7914,-36.6744 -5.81339,-13.6996 -9.01772,-28.5744 -9.26694,-43.7965 -0.238583,-14.5819 2.29016,-29.4284 7.89686,-43.7882 3.32717,-8.57245 7.513,-16.3606 12.4169,-23.3634 5.24646,-7.49174 11.1697,-14.0776 17.6138,-19.761l1.11732 -0.787796 7.4256 -6.00709 0.256299 -0.31063 88.7859 -70.3064 0.0389764 0.0531496c1.75276,-1.42559 3.5374,-2.6374 5.28426,-3.66614 2.60197,-1.52835 4.28268,-2.39528 5.35394,-2.85118l0.0259843 0.0649607c4.8567,-2.1248 10.1327,-3.26811 15.4004,-3.37205zm128.059 -100.896l0 0zm0.882284 6.73465l0 0zm260.359 -387.357l0 0zm-35.0185 25.3784l0 0zm89.6989 -63.3378c0.250394,0.757087 3.56221,9.98505 4.80827,13.5177 -20.8843,5.30552 -40.9111,13.5225 -59.4886,24.4418l-1.45394 0.862205 -0.134646 0.080315 -0.0720473 0.0437008c-1.51063,0.904725 -3.01181,1.82835 -4.50237,2.77087l-0.111024 0.0696851 -0.218504 0.13937 -2.06339 1.32402 -0.0354331 0.022441 -0.0377953 0.0248032c-3.06614,1.99252 -6.08741,4.06181 -9.06261,6.20788l-0.0283465 0.0200788c-2.20748,1.59331 -4.39016,3.22796 -6.54449,4.90394l-0.115748 0.0885827 -2.12717 1.67835 -0.0177165 0.0129921c-1.42913,1.13976 -2.8441,2.29961 -4.24725,3.47717l-0.0602363 0.0507874 -2.03268 1.72677 -0.0555119 0.0472441 -0.172441 0.148819 -1.93465 1.68662c-1.35473,1.19528 -2.69764,2.40709 -4.02638,3.6378l-0.101575 0.0933072 -0.317717 0.296457 -1.5815 1.48465 -0.138189 0.129921 -0.157087 0.15 -1.85906 1.78937c-31.4516,30.613 -53.1059,69.5469 -62.0457,112.18 -37.7764,11.7295 -72.006,33.0437 -99.052,62.3008 -37.4433,40.5048 -58.3536,93.0686 -58.3536,148.351 0,1.83071 0.022441,3.65788 0.068504,5.4815l0.00236221 0.0755906c0.0708662,2.77441 0.193701,5.53937 0.369685,8.29489l0.00354331 0.0578741 0.172441 2.46851 0.0165354 0.225591 0.0212599 0.266929 0.201969 2.42953 0.00354331 0.0330709 0.0011811 0.0165354 0.00354331 0.0425197 0.253937 2.6504 0.00472441 0.0472441 0.0200788 0.190158 0.265748 2.44961 0.011811 0.101575 0.317717 2.62205 0.011811 0.0933072 0.0153543 0.114567 0.327166 2.43662 0.022441 0.165354 0.0188977 0.127559 0.17126 1.16575c3.2374,22.0323 9.83387,43.2756 19.4622,63.1052l-374.067 0c-61.6843,0 -117.678,-24.8327 -158.297,-64.9123 -40.5591,-40.0193 -65.6776,-95.2335 -65.6776,-156.06 0,-15.8988 1.85551,-31.7977 5.36811,-47.4721 11.0941,-49.4941 38.9882,-92.8276 77.2973,-123.716 38.4922,-31.037 87.4926,-49.7079 140.588,-49.7079 10.8484,0 22.0347,0.836221 33.5067,2.56772 19.1492,-28.8945 44.6138,-52.6028 74.0292,-69.717l-0.0318898 -0.0531496c33.9485,-19.7327 73.0489,-30.6673 113.68,-30.6673 10.1941,0 20.6693,0.757087 31.363,2.27362 4.53426,0.641339 9.11339,1.44213 13.7339,2.39882 18.7725,-30.3673 44.2229,-55.3004 73.9701,-73.3276 34.5532,-20.941 74.8489,-32.5607 117.16,-32.5607 61.6311,0 117.647,24.8469 158.289,64.9441 24.6355,24.3083 43.5839,54.2209 54.6626,87.5883z"/>
 </g>
</svg>
