<?xml version="1.0" encoding="UTF-8"?>
<!DOCTYPE svg PUBLIC "-//W3C//DTD SVG 1.1//EN" "http://www.w3.org/Graphics/SVG/1.1/DTD/svg11.dtd">
<!-- Creator: CorelDRAW -->
<svg xmlns="http://www.w3.org/2000/svg" xml:space="preserve" width="2048px" height="2048px" style="shape-rendering:geometricPrecision; text-rendering:geometricPrecision; image-rendering:optimizeQuality; fill-rule:evenodd; clip-rule:evenodd"
viewBox="0 0 2048 2048"
 xmlns:xlink="http://www.w3.org/1999/xlink">
 <defs>
  <style type="text/css">
   <![CDATA[
    .fil0 {fill:#607D8B}
    .fil1 {fill:#FFFFFE;fill-rule:nonzero}
   ]]>
  </style>
 </defs>
 <g id="Layer_x0020_1">
  <metadata id="CorelCorpID_0Corel-Layer"/>
  <rect class="fil0" width="2048" height="2048" rx="256.001" ry="256.001"/>
  <path class="fil1" d="M960.083 1315.55c5.00906,-2.1437 10.6028,-3.30473 16.3606,-3.26339 5.82166,-0.0401575 11.2984,1.13504 16.2189,3.24922 4.7504,2.04095 9.16654,5.07284 12.9732,8.77324l0.0011811 -0.0011811c1.53071,1.48465 2.91378,2.95866 4.11496,4.48937 1.12205,1.42795 2.26536,3.12992 3.46654,5.22993l0.0354331 -0.0212599 56.954 96.2824 0.125197 0.249213 4.90512 8.45788 0.750001 1.37599c3.89174,7.53662 6.96378,15.5953 9.06969,24.0638 1.98662,7.98071 3.07677,16.4894 3.13937,25.4339l0 0.125197c-0.0425197,14.9681 -3.10984,29.2311 -8.60198,42.1843 -5.75079,13.5626 -14.0646,25.6819 -24.2705,35.6835l-1.24961 1.24961 -0.0791339 0.0696851 -0.0212599 -0.0236221c-10.0878,9.58229 -21.9154,17.289 -34.9181,22.5874 -12.9036,5.25827 -27.2044,8.18386 -42.3496,8.25001l-0.125197 0c-15.0862,0.0177165 -29.413,-2.86772 -42.4288,-8.11182 -13.6925,-5.51575 -25.9996,-13.6016 -36.2894,-23.6398 -10.3595,-10.1209 -18.7264,-22.2756 -24.4784,-35.8488 -5.51103,-13.0016 -8.55119,-27.2776 -8.56182,-42.2705 -0.0248032,-8.94213 1.0311,-17.5028 3.0378,-25.6264 2.14725,-8.69174 5.25,-16.8236 9.16418,-24.3402l0.750001 -1.12559 4.70552 -8.1756 0.125197 -0.37441 56.8182 -96.3804 0.0555119 0.0330709c1.10787,-1.93701 2.32323,-3.69331 3.56929,-5.27126 1.85788,-2.34685 3.10158,-3.75473 3.93071,-4.56496l0.0472441 0.0484252c3.73229,-3.72638 8.20985,-6.72993 13.0559,-8.79686z"/>
  <path class="fil1" d="M1567.46 1315.55c5.00906,-2.1437 10.6028,-3.30473 16.3606,-3.26339 5.82166,-0.0401575 11.2984,1.13504 16.2189,3.24922 4.74922,2.03977 9.16654,5.07284 12.9732,8.77324l0.0011811 -0.0011811c1.53071,1.48465 2.9126,2.95748 4.11496,4.48937 1.12205,1.42795 2.26299,3.12874 3.46536,5.22993l0.0366142 -0.0212599 56.954 96.2824 0.125197 0.249213 4.90512 8.45788 0.750001 1.37599c3.89174,7.53662 6.96378,15.5953 9.06969,24.0638 1.98662,7.98071 3.07677,16.4894 3.13937,25.4339l0 0.125197c-0.0425197,14.9681 -3.10984,29.2311 -8.60198,42.1843 -5.75079,13.5626 -14.0634,25.6819 -24.2705,35.6835l-1.24961 1.24961 -0.0791339 0.0696851 -0.0212599 -0.0236221c-10.0878,9.58229 -21.9154,17.289 -34.9181,22.5874 -12.9036,5.25827 -27.2032,8.18386 -42.3496,8.25001l-0.125197 0c-15.0862,0.0177165 -29.413,-2.86772 -42.4288,-8.11182 -13.6925,-5.51575 -25.9996,-13.6016 -36.2894,-23.6398 -10.3595,-10.1209 -18.7264,-22.2756 -24.4784,-35.8488 -5.51103,-13.0016 -8.55119,-27.2776 -8.56182,-42.2705 -0.0248032,-8.94213 1.0311,-17.5028 3.0378,-25.6264 2.14725,-8.69174 5.25,-16.8236 9.16418,-24.3402l0.750001 -1.12559 4.70552 -8.1756 0.125197 -0.37441 56.8182 -96.3804 0.0555119 0.0330709c1.10787,-1.93701 2.32323,-3.69331 3.56929,-5.27126 1.85788,-2.34685 3.10158,-3.75473 3.93071,-4.56496l0.0472441 0.0484252c3.73229,-3.72638 8.20985,-6.72993 13.0559,-8.79686z"/>
  <path class="fil1" d="M1261.65 995.806c5.63859,-2.35748 11.9067,-3.63071 18.3414,-3.56693 17.3941,-0.175984 33.2551,9.7878 42.0792,24.4819 30.1193,50.6882 61.1859,101.249 91.7079,151.801l0.125197 0.250394 7.86851 13.2945 0.750001 1.3748c5.68347,10.7776 10.1185,22.1103 13.0925,33.8185 2.85118,11.2276 4.41496,23.2465 4.50591,35.941l0 0.125197c-0.0614174,21.0508 -4.48583,41.1614 -12.4134,59.478 -8.2441,19.0488 -20.1744,36.0815 -34.8319,50.1544l-0.283465 0.257481c-14.6303,14.0102 -32.139,25.3181 -51.6355,33.1016 -18.6543,7.44686 -39.0957,11.589 -60.5162,11.6799l-0.125197 0c-21.5941,0.0248032 -42.0709,-4.0063 -60.6437,-11.3374 -19.5815,-7.72914 -37.2,-19.0748 -51.9508,-33.1736l-0.125197 -0.124016c-14.7744,-14.1425 -26.7248,-31.167 -34.9677,-50.2181 -7.94883,-18.3744 -12.3331,-38.5063 -12.3473,-59.615 -0.0377953,-12.6201 1.47284,-24.6567 4.3441,-36.0425 3.05433,-12.1134 7.5378,-23.5795 13.2413,-34.3099l0.750001 -1.12441 7.54961 -12.8504 0.125197 -0.250394 91.004 -151.234c5.69764,-9.4441 14.0823,-17.6067 24.3555,-21.9118z"/>
  <path class="fil1" d="M1597.5 1205.57l-131.878 0c-3.58583,-12.9992 -8.54174,-25.604 -15.0047,-37.4504l-1.01811 -1.86614 -7.57678 -12.802 -0.187795 -0.376772 -6.94725 -11.5063 0.998032 0c-25.9193,-48.8681 -57.9957,-93.8056 -86.3398,-141.255 -14.6008,-24.4418 -40.9489,-40.0737 -69.554,-40.0713 -10.5047,0.0011811 -20.9929,1.9878 -30.6933,6.04843 -16.5803,6.94016 -30.1996,19.611 -39.4181,34.9311l-84.4536 140.347 -7.19528 11.9575 -0.199606 0.401575 -6.53977 11.1307 -0.243307 0.364961c-8.27599,12.4075 -12.8539,25.9595 -16.5945,40.1469l-36.0236 0c-53.615,0 -102.207,-21.7831 -137.389,-56.9658 -35.1815,-35.1839 -56.9634,-83.7757 -56.9634,-137.394 0,-49.8036 18.7311,-95.5135 49.852,-130.101 26.7662,-29.7473 62.7508,-51.2126 103.903,-59.915 4.54016,-45.9272 25.1044,-87.1926 56.0162,-118.106 35.1839,-35.1862 83.7768,-56.9717 137.392,-56.9717 36.6827,0 71.6363,10.2307 101.613,28.6748 24.8232,15.2728 46.2012,36.1701 62.2867,61.5402 3.0189,-0.575197 6.04725,-1.08425 9.0815,-1.52008 9.14174,-1.31575 18.1228,-2.01024 26.8642,-2.01024 35.217,0 69.1371,9.63662 98.5796,27.0484 24.476,14.4732 45.8422,34.4398 62.25,58.8107 8.94213,-1.23898 17.6587,-1.83898 26.1189,-1.83898 46.1174,0 88.6572,16.4457 122.065,43.7729 33.2292,27.1807 57.4182,65.3233 67.0394,108.876 3.05551,13.8331 4.6689,27.815 4.6689,41.739 0,53.5477 -21.8351,102.152 -57.1252,137.411 -35.2051,35.1733 -83.7851,56.9493 -137.381,56.9493z"/>
  <path class="fil1" d="M857.486 1115.04l-377.512 0c-61.6843,0 -117.678,-25.1858 -158.297,-65.8335 -40.5591,-40.5874 -65.6776,-96.5859 -65.6776,-158.276 0,-16.1244 1.85551,-32.2488 5.36811,-48.1465 11.0941,-50.1957 38.9882,-94.1446 77.2973,-125.472 38.4922,-31.4776 87.4926,-50.413 140.588,-50.413 10.8484,0 22.0347,0.848032 33.5067,2.60433 19.1492,-29.3055 44.6138,-53.3493 74.0292,-70.7067l-0.0318898 -0.0543308c33.9485,-20.0126 73.0489,-31.102 113.68,-31.102 10.1941,0 20.6693,0.767717 31.363,2.30551 4.53426,0.650788 9.11339,1.46221 13.7339,2.43307 18.7725,-30.7984 44.2229,-56.0859 73.9701,-74.3693 34.5532,-21.2374 74.8489,-33.0225 117.16,-33.0225 61.6311,0 117.647,25.2 158.289,65.8666 25.3051,25.3229 44.6079,56.641 55.5485,91.5969 -20.8193,5.81693 -40.6937,14.6032 -59.0469,26.1047 -14.3752,9.00473 -27.8138,19.6807 -40.037,31.9051 -31.6429,31.6441 -53.1059,71.6859 -61.8804,115.204 -38.0516,12.1193 -72.2871,34.1303 -99.1985,64.0394 -37.5071,41.6847 -58.0642,95.4308 -58.0642,151.505 0,13.4681 1.19055,26.7874 3.51496,39.8303l0.00354331 0c3.98859,22.376 11.3126,43.9311 21.6945,64.0016z"/>
 </g>
</svg>
