<?xml version="1.0" encoding="UTF-8"?>
<!DOCTYPE svg PUBLIC "-//W3C//DTD SVG 1.1//EN" "http://www.w3.org/Graphics/SVG/1.1/DTD/svg11.dtd">
<!-- Creator: CorelDRAW -->
<svg xmlns="http://www.w3.org/2000/svg" xml:space="preserve" width="2048px" height="2048px" style="shape-rendering:geometricPrecision; text-rendering:geometricPrecision; image-rendering:optimizeQuality; fill-rule:evenodd; clip-rule:evenodd"
viewBox="0 0 2048 2048"
 xmlns:xlink="http://www.w3.org/1999/xlink">
 <defs>
  <style type="text/css">
   <![CDATA[
    .fil0 {fill:none}
    .fil1 {fill:#7E57C2}
    .fil3 {fill:#FFFFFE}
    .fil2 {fill:#FFFFFE;fill-rule:nonzero}
   ]]>
  </style>
 </defs>
 <g id="Layer_x0020_1">
  <metadata id="CorelCorpID_0Corel-Layer"/>
  <rect class="fil0" width="2048" height="2048"/>
  <rect class="fil1" width="2048" height="2048" rx="256.001" ry="256.001"/>
  <g id="_351028856">
   <path id="_351030752" class="fil2" d="M1076.92 319.983c70.9229,0 136.312,23.4709 188.504,62.9174 2.10945,1.59449 4.19528,3.21614 6.26103,4.8626 -20.5784,7.46575 -40.4752,16.963 -59.4142,28.428 -34.702,21.0059 -65.3457,48.1831 -90.2327,80.08 -3.93544,-1.41378 -7.90512,-2.73189 -11.9055,-3.95079 -24.4855,-7.45985 -49.937,-11.2311 -75.5327,-11.2311 -62.9658,0 -123.482,22.7268 -170.684,64.4292 -31.8012,28.0973 -56.0504,63.6178 -70.343,103.335 -61.0961,4.07126 -118.787,29.5748 -162.872,72.6993 -48.2103,47.1591 -75.5162,110.978 -75.5162,178.575 0,58.2213 20.2725,113.66 56.7603,158.101l-136.534 0c-23.713,0 -19.1469,-0.917717 -41.8111,-6.18662 -42.9059,-9.98032 -81.143,-31.7859 -110.903,-61.7044 -40.4528,-40.6654 -65.3658,-96.1926 -65.3658,-157.406 0,-62.3339 25.8071,-118.743 67.5225,-159.552 41.5229,-40.6158 98.7213,-65.7402 161.751,-65.7402 2.18977,0 4.39961,0.034252 6.62835,0.101575 11.1413,-44.576 35.7662,-83.9127 69.3886,-113.617 40.6666,-35.9303 94.3997,-57.8067 153.194,-57.8067 23.5418,0 46.3347,3.5315 67.8449,10.0854 11.4437,3.48544 22.5272,7.84843 33.1666,13.0063 25.0559,-38.1638 58.6075,-70.4682 98.0363,-94.3347 47.2229,-28.5874 102.752,-45.091 162.057,-45.091z"/>
   <path id="_351028736" class="fil2" d="M1386.99 399.564c69.2103,0 133.022,22.904 183.953,61.3985 49.2343,37.213 86.4402,89.0375 104.907,148.906 33.9355,25.213 62.0445,57.6449 81.9603,94.989 20.9929,39.3591 32.8618,84.0485 32.8618,131.371 0,78.4737 -32.4933,149.497 -85.0264,200.887 -44.9327,43.9536 -103.055,79.1327 -169.641,82.8697l-736.001 0c-23.1402,0 -18.6851,-0.895276 -40.8012,-6.0378 -41.8701,-9.73938 -79.1847,-31.0181 -108.226,-60.2138 -39.476,-39.6839 -63.7878,-93.8705 -63.7878,-153.606 0,-60.828 25.1835,-115.876 65.8926,-155.699 40.5201,-39.6355 96.3379,-64.1528 157.845,-64.1528 2.13662,0 4.29331,0.0330709 6.4689,0.0992127 10.8721,-43.5 34.9028,-81.8871 67.7127,-110.875 39.6851,-35.0622 92.1213,-56.4107 149.496,-56.4107 22.9736,0 45.2162,3.44646 66.2067,9.84213 11.1673,3.40158 21.9827,7.65827 32.3658,12.6921 24.4512,-37.2425 57.1926,-68.7674 95.6694,-92.0576 46.0831,-27.8965 100.271,-44.002 158.144,-44.002z"/>
  </g>
  <polygon class="fil3" points="499.435,1405.16 576.012,1504 523.048,1540.58 447.944,1442.7 372.095,1540.79 320.012,1504 397.09,1404.48 269.835,1373.03 287.902,1311.24 416.012,1344 416.012,1216 480.042,1216 480.042,1344.03 608.058,1311.65 625.052,1373.77 "/>
  <polygon class="fil3" points="1075.32,1565.05 1151.9,1663.9 1098.93,1700.48 1023.83,1602.59 947.978,1700.68 895.895,1663.9 972.974,1564.37 845.718,1532.93 863.786,1471.14 991.895,1503.9 991.895,1375.9 1055.93,1375.9 1055.93,1503.93 1183.94,1471.54 1200.94,1533.66 "/>
  <polygon class="fil3" points="1651.5,1405.16 1728.07,1504 1675.11,1540.58 1600.01,1442.7 1524.16,1540.79 1472.07,1504 1549.15,1404.48 1421.9,1373.03 1439.96,1311.24 1568.07,1344 1568.07,1216 1632.1,1216 1632.1,1344.03 1760.12,1311.65 1777.11,1373.77 "/>
 </g>
</svg>
