<svg xmlns="http://www.w3.org/2000/svg" xmlns:xlink="http://www.w3.org/1999/xlink" version="1.1" x="0px" y="0px" viewBox="0 0 100 125" style="enable-background:new 0 0 100 100;" xml:space="preserve"><g><g><g><path d="M79.3,63.9l-0.3-3c1-0.1,1.8-0.3,2.5-0.5c2.4-0.9,4.3-3.1,4.8-5.6c0.5-2.5-0.3-5.3-2.1-7.1c-1.4-1.5-3.5-2.4-5.6-2.4     c-0.5,0-1,0-1.5,0.1L75,45.6l0.4-2.1c0.6-2.8-1.1-5.6-3.1-7.2c-3.4-2.7-8.5-3.1-12.3-0.9c-1.4,0.8-2.6,2.1-3.4,3.5L54,37.5     c1-1.9,2.6-3.5,4.5-4.6c4.8-2.9,11.3-2.4,15.7,1.1c2.7,2.1,4.3,5.2,4.3,8.2c0.1,0,0.1,0,0.2,0c2.9,0.1,5.7,1.3,7.7,3.3     c2.5,2.6,3.6,6.4,2.9,9.9c-0.7,3.5-3.4,6.6-6.7,7.8C81.6,63.6,80.5,63.8,79.3,63.9z"/></g><g><g><path d="M33.7,76.1c-2.5,0-5.3,0-8-1c-3.6-1.3-6.5-4.1-7.9-7.7c-1.3-3.5-1.1-7.4,0.6-10.7c1.8-3.4,4.9-5.9,8.5-6.8      c2.8-0.7,5.7-0.7,8.5-0.6c0-4.6,2.8-9.3,7.2-11.9c6-3.5,13.9-3,19.4,1.4c3.4,2.7,5.4,6.7,5.3,10.5c0.2,0,0.4,0,0.6,0l0,0      c3.6,0.1,7,1.6,9.4,4.1c3.1,3.2,4.5,7.8,3.6,12.1c-0.9,4.3-4.2,8.1-8.3,9.6c-2.7,1-5.7,1-8.3,1l-30.5,0      C33.9,76.1,33.8,76.1,33.7,76.1z M32.7,52.3c-1.7,0-3.4,0.1-5,0.5c-2.8,0.7-5.2,2.6-6.6,5.3c-1.3,2.6-1.5,5.6-0.5,8.3      c1,2.7,3.3,4.9,6.1,5.9c2.2,0.8,4.8,0.8,7.2,0.8l30.5,0c2.5,0,5,0,7.3-0.8c3.2-1.1,5.7-4,6.4-7.4c0.7-3.3-0.4-7-2.8-9.4      c-1.9-1.9-4.6-3.1-7.4-3.2l0,0c-0.7,0-1.3,0-2,0.1l-2.1,0.3l0.4-2.1c0.8-3.7-1.5-7.4-4-9.5c-4.4-3.5-11.1-4-16-1.1      c-4,2.4-6.3,6.7-5.6,10.7l0.3,1.9L37,52.4C35.6,52.4,34.2,52.3,32.7,52.3z"/></g><g><path d="M23.6,52.5c-2-2.1-3-4.8-3-7.6c0-6.1,5-11.1,11.1-11.1c4,0,7.8,2.2,9.7,5.7l-2.6,1.5c-1.4-2.6-4.2-4.2-7.1-4.2      c-4.5,0-8.1,3.6-8.1,8.1c0,2.1,0.8,4.1,2.2,5.6L23.6,52.5z"/></g><g><path d="M23.4,34.2c-0.4,0-0.9-0.2-1.2-0.6l-3.4-4.3c-0.5-0.6-0.4-1.6,0.2-2.1c0.6-0.5,1.6-0.4,2.1,0.2l3.4,4.3      c0.5,0.6,0.4,1.6-0.2,2.1C24.1,34.1,23.7,34.2,23.4,34.2z"/></g><g><path d="M32.9,32.1c-0.2,0-0.3,0-0.5-0.1c-0.8-0.3-1.2-1.1-1-1.9l1.7-5.2c0.3-0.8,1.1-1.2,1.9-1c0.8,0.3,1.2,1.1,1,1.9l-1.7,5.2      C34.1,31.7,33.5,32.1,32.9,32.1z"/></g><g><path d="M12,51.7c-0.7,0-1.3-0.5-1.5-1.2c-0.1-0.8,0.4-1.6,1.2-1.7l5.4-0.9c0.8-0.1,1.6,0.4,1.7,1.2c0.1,0.8-0.4,1.6-1.2,1.7      l-5.4,0.9C12.2,51.7,12.1,51.7,12,51.7z"/></g><g><path d="M17.9,41.7c-0.1,0-0.3,0-0.4-0.1l-5.3-1.4c-0.8-0.2-1.3-1-1.1-1.8c0.2-0.8,1-1.3,1.8-1.1l5.3,1.4c0.8,0.2,1.3,1,1.1,1.8      C19.2,41.3,18.6,41.7,17.9,41.7z"/></g></g><g><path d="M70.2,69.4c-0.3,0-0.6-0.1-0.8-0.2c-0.7-0.4-0.9-1.4-0.5-2.1c0.7-1.1,1.1-2.4,1.1-3.7c0-2-0.8-3.8-2.3-5.2     c-0.6-0.6-0.6-1.5-0.1-2.1c0.6-0.6,1.5-0.6,2.1-0.1c2.1,2,3.2,4.6,3.2,7.4c0,1.9-0.5,3.7-1.5,5.3C71.2,69.2,70.7,69.4,70.2,69.4z     "/></g></g></g></svg>