<?xml version="1.0" encoding="UTF-8"?>
<!DOCTYPE svg PUBLIC "-//W3C//DTD SVG 1.1//EN" "http://www.w3.org/Graphics/SVG/1.1/DTD/svg11.dtd">
<!-- Creator: CorelDRAW -->
<svg xmlns="http://www.w3.org/2000/svg" xml:space="preserve" width="2048px" height="2048px" style="shape-rendering:geometricPrecision; text-rendering:geometricPrecision; image-rendering:optimizeQuality; fill-rule:evenodd; clip-rule:evenodd"
viewBox="0 0 2048 2048"
 xmlns:xlink="http://www.w3.org/1999/xlink">
 <defs>
  <style type="text/css">
   <![CDATA[
    .fil0 {fill:none}
    .fil1 {fill:#FFCA28}
    .fil3 {fill:#FFFFFE}
    .fil2 {fill:#FFFFFE;fill-rule:nonzero}
   ]]>
  </style>
 </defs>
 <g id="Layer_x0020_1">
  <metadata id="CorelCorpID_0Corel-Layer"/>
  <rect class="fil0" width="2048" height="2048"/>
  <rect class="fil0" width="2048" height="2048"/>
  <rect class="fil1" width="2048" height="2048" rx="256.001" ry="256.001"/>
  <path class="fil2" d="M1401.21 941.302c67.1292,0 129.027,21.9851 178.433,58.9359 47.5571,35.5654 83.5489,85.0477 101.552,142.217 32.6433,24.1488 59.693,55.1233 78.9001,90.7619 20.3847,37.8201 31.911,80.7544 31.911,126.213 0,73.8768 -30.3898,142.436 -79.7623,192.292 -48.5575,49.0323 -115.606,79.9323 -190.279,79.9524 -201.934,0.0649607 -474.791,-0.969686 -660.159,0.245669 -10.4055,0.0696851 -20.9398,0.13937 -30.391,-0.51378 -56.4839,-3.92126 -107.027,-28.8 -143.389,-66.6615 -36.4004,-37.9004 -58.6654,-88.689 -58.6654,-144.489 0,-58.591 24.5114,-111.613 64.1375,-149.968 39.4288,-38.165 93.73,-61.7705 153.555,-61.7705 1.43504,0 2.88189,0.0153543 4.33819,0.046063 10.8059,-41.1118 33.9626,-77.3894 65.4083,-104.882 38.6114,-33.7583 89.6186,-54.313 145.419,-54.313 22.3417,0 43.9748,3.3189 64.3961,9.47245 10.1764,3.06733 20.0551,6.85749 29.5689,11.3091 23.5914,-34.9843 54.9213,-64.617 91.6312,-86.6044 44.7107,-26.7815 97.2733,-42.2422 153.396,-42.2422z"/>
  <path class="fil3" d="M640.232 642.231c104.934,0 189.999,85.0654 189.999,189.999 0,42.1122 -13.7079,81.0166 -36.8953,112.514 -10.7752,-1.35827 -21.639,-2.04095 -32.5276,-2.04095 -62.256,0 -122.255,22.2166 -169.153,63.2186 -2.84173,2.48386 -5.62087,5.02796 -8.34095,7.62993 -77.126,-24.1855 -133.082,-96.2174 -133.082,-181.322 0,-104.934 85.0654,-189.999 189.999,-189.999z"/>
  <path class="fil2" d="M1106.03 864.653c68.3623,0 131.398,22.389 181.71,60.0189 1.37244,1.02638 2.73425,2.06575 4.0878,3.11457 -20.954,7.3193 -41.2087,16.7752 -60.4583,28.3051 -32.9658,19.7469 -62.2418,45.2032 -86.2194,75.1134 -3.0815,-1.06181 -6.18308,-2.06339 -9.30355,-3.00473 -23.8807,-7.19646 -48.6898,-10.8331 -73.63,-10.8331 -61.2721,0 -120.324,21.8669 -166.481,62.2217 -30.3827,26.5642 -53.7933,60.0709 -67.9099,97.6477 -58.6111,4.40079 -114.018,28.8555 -156.585,70.0571 -47.0693,45.5599 -73.8816,107.337 -73.8816,172.961 0,53.9304 18.1311,105.314 50.8181,147.284 -32.1567,0.0944883 -62.8371,0.229134 -91.4587,0.416929 -10.5969,0.0708662 -21.3248,0.141732 -30.9496,-0.523229 -57.5209,-3.99331 -108.992,-29.3292 -146.023,-67.8851 -37.0689,-38.5973 -59.7426,-90.319 -59.7426,-147.143 0,-59.6682 24.9614,-113.663 65.315,-152.724 40.154,-38.8654 95.452,-62.9044 156.376,-62.9044 1.46221,0 2.93504,0.0153543 4.41851,0.046063 11.0043,-41.8666 34.5862,-78.8103 66.6095,-106.808 39.3213,-34.3784 91.265,-55.3099 148.09,-55.3099 22.7516,0 44.7815,3.37914 65.5784,9.64607 10.363,3.12402 20.4236,6.98386 30.1122,11.5169 24.0248,-35.6268 55.93,-65.804 93.3142,-88.1953 45.5315,-27.2729 99.0603,-43.0181 156.213,-43.0181z"/>
  <polygon class="fil2" points="608.546,607.924 608.546,447.998 672.547,447.998 672.547,607.924 "/>
  <polygon class="fil2" points="416.791,863.238 257.001,863.238 257.001,799.236 416.791,799.236 "/>
  <polygon class="fil2" points="504.963,1012.11 391.975,1125.1 346.725,1079.85 459.713,966.859 "/>
  <polygon class="fil2" points="459.713,695.615 346.725,582.628 391.975,537.377 504.963,650.365 "/>
  <path class="fil2" d="M943.334 863.238l-79.0264 0 0 -64.0016 159.861 0 0 33.1146c-28.0677,6.74056 -55.2296,17.0811 -80.8347,30.887z"/>
  <polygon class="fil2" points="934.444,582.628 821.407,695.666 776.156,650.416 889.194,537.377 "/>
 </g>
</svg>
