<?xml version="1.0" encoding="UTF-8"?>
<!DOCTYPE svg PUBLIC "-//W3C//DTD SVG 1.1//EN" "http://www.w3.org/Graphics/SVG/1.1/DTD/svg11.dtd">
<!-- Creator: CorelDRAW -->
<svg xmlns="http://www.w3.org/2000/svg" xml:space="preserve" width="2048px" height="2048px" style="shape-rendering:geometricPrecision; text-rendering:geometricPrecision; image-rendering:optimizeQuality; fill-rule:evenodd; clip-rule:evenodd"
viewBox="0 0 2048 2048"
 xmlns:xlink="http://www.w3.org/1999/xlink">
 <defs>
  <style type="text/css">
   <![CDATA[
    .fil0 {fill:#66BB6A}
    .fil1 {fill:#FFFFFE;fill-rule:nonzero}
   ]]>
  </style>
 </defs>
 <g id="Layer_x0020_1">
  <metadata id="CorelCorpID_0Corel-Layer"/>
  <rect class="fil0" width="2048" height="2048" rx="256.001" ry="256.001"/>
  <path class="fil1" d="M1170.79 669.084c47.2134,19.5307 89.5158,47.9918 124.736,83.2111 35.2595,35.2595 63.7536,77.5985 83.3091,124.839 18.7914,45.3969 29.1626,95.0032 29.1626,146.843 0,51.841 -10.3713,101.447 -29.1626,146.844 -19.5555,47.2406 -48.0496,89.5796 -83.3091,124.839 -35.2205,35.2193 -77.5229,63.6804 -124.736,83.2111 -45.3733,18.7677 -94.9619,29.1284 -146.792,29.1284 -51.8315,0 -101.42,-10.3606 -146.793,-29.1284 -47.2134,-19.5307 -89.5182,-47.993 -124.736,-83.2111 -35.2583,-35.2595 -63.7536,-77.5985 -83.3091,-124.839 -18.7902,-45.3969 -29.1626,-95.0032 -29.1626,-146.844 0,-106.139 42.9827,-202.193 112.472,-271.682 35.2181,-35.2181 77.5229,-63.6804 124.736,-83.2111 45.3733,-18.7677 94.9619,-29.1284 146.793,-29.1284 51.8304,0 101.419,10.3606 146.792,29.1284z"/>
  <polygon class="fil1" points="570.182,1058.91 256.001,1058.91 256.001,989.092 570.182,989.092 "/>
  <polygon class="fil1" points="1058.91,1477.82 1058.91,1792 989.092,1792 989.092,1477.82 "/>
  <polygon class="fil1" points="727.789,1369.58 505.629,1591.74 456.259,1542.37 678.419,1320.21 "/>
  <polygon class="fil1" points="678.415,727.789 456.255,505.629 505.626,456.259 727.785,678.419 "/>
  <polygon class="fil1" points="1792,1058.91 1477.82,1058.91 1477.82,989.089 1792,989.089 "/>
  <polygon class="fil1" points="1058.91,255.998 1058.91,570.18 989.089,570.18 989.089,255.998 "/>
  <polygon class="fil1" points="1591.74,505.624 1369.58,727.785 1320.21,678.415 1542.37,456.254 "/>
  <polygon class="fil1" points="1542.38,1591.74 1320.21,1369.58 1369.58,1320.21 1591.75,1542.37 "/>
 </g>
</svg>
